<?xml version="1.0" standalone="no"?>
<!DOCTYPE svg PUBLIC "-//W3C//DTD SVG 20010904//EN"
 "http://www.w3.org/TR/2001/REC-SVG-20010904/DTD/svg10.dtd">
<svg version="1.0" xmlns="http://www.w3.org/2000/svg"
 width="439.000000pt" height="599.000000pt" viewBox="0 0 439.000000 599.000000"
 preserveAspectRatio="xMidYMid meet">

<g transform="translate(0.000000,599.000000) scale(0.100000,-0.100000)"
fill="#ffffff" stroke="none">
<path d="M1955 5872 c-87 -26 -141 -57 -203 -116 -73 -69 -100 -113 -138 -231
l-33 -100 -49 -20 c-112 -46 -348 -232 -370 -293 -13 -37 -32 -163 -32 -216 0
-23 -9 -69 -20 -102 -12 -32 -20 -77 -19 -99 2 -22 -3 -50 -9 -62 -21 -38 -14
-94 17 -148 36 -62 145 -167 209 -199 83 -42 199 -76 260 -76 31 0 74 -3 94
-6 35 -6 38 -10 54 -63 22 -75 20 -202 -6 -321 -12 -52 -27 -126 -34 -165 -8
-38 -21 -86 -29 -106 -9 -20 -17 -72 -19 -117 -3 -69 0 -84 18 -109 28 -38 39
-77 60 -208 34 -212 13 -341 -98 -609 -82 -197 -98 -245 -105 -307 -14 -135
43 -262 180 -402 80 -82 143 -126 306 -215 l74 -40 -54 -27 c-29 -15 -72 -39
-94 -53 -22 -14 -66 -36 -98 -48 -31 -12 -86 -42 -120 -67 l-63 -44 -13 66
c-7 36 -16 106 -21 154 -11 112 -35 162 -98 205 -30 20 -55 47 -65 70 -23 52
-151 188 -201 214 -22 12 -59 21 -82 21 -86 0 -213 -90 -215 -154 -1 -22 -3
-26 -6 -12 -10 49 27 173 74 251 55 91 67 156 38 213 -24 46 -43 58 -90 58
-47 1 -106 -24 -153 -64 -31 -26 -89 -127 -118 -205 -12 -35 -13 -34 -13 33
-1 100 -17 152 -58 187 -18 17 -43 30 -55 30 -35 0 -85 -38 -121 -93 -63 -96
-62 -92 -61 -242 0 -122 3 -146 22 -189 12 -27 22 -57 22 -68 0 -19 -1 -18
-31 3 -40 28 -64 68 -88 149 -28 91 -54 114 -121 108 -65 -7 -86 -27 -107
-104 -28 -109 -1 -230 96 -419 28 -55 77 -132 110 -172 68 -83 127 -187 141
-246 6 -23 19 -91 30 -150 11 -59 25 -117 31 -128 12 -23 -7 -53 -91 -144 -26
-27 -61 -72 -79 -98 -29 -42 -32 -53 -26 -90 4 -23 14 -58 22 -77 8 -19 26
-69 40 -110 13 -41 32 -88 42 -105 10 -16 24 -51 31 -77 8 -30 19 -50 31 -53
29 -10 38 2 32 44 l-5 39 61 -5 c34 -3 61 -2 61 3 0 5 -23 18 -52 28 -29 10
-68 29 -89 41 -32 21 -39 32 -53 92 -10 37 -24 94 -32 125 -20 80 -19 83 28
161 79 131 129 163 157 101 16 -36 15 -134 -2 -134 -19 0 -37 21 -37 42 0 26
-19 22 -32 -6 -15 -34 24 -113 71 -143 55 -37 166 -32 295 11 129 44 239 93
232 105 -3 5 17 23 44 41 27 18 64 50 81 71 33 42 54 51 44 18 -5 -14 -1 -25
11 -33 22 -17 14 -49 -26 -104 -52 -72 -212 -156 -345 -181 -101 -20 -105 -21
-105 -36 0 -48 257 17 395 100 32 20 59 34 61 33 4 -4 -23 -127 -33 -156 -11
-28 3 -192 17 -206 17 -17 24 2 26 69 1 35 7 86 12 112 6 26 21 98 32 160 12
62 30 129 41 150 10 20 19 54 19 74 0 21 5 50 11 66 20 53 138 219 200 281
l62 62 66 0 c79 1 133 12 203 44 29 13 64 27 78 31 39 12 132 62 167 91 l31
25 14 -28 c10 -20 22 -29 47 -33 31 -4 38 -12 70 -76 72 -141 213 -290 339
-359 41 -22 85 -46 99 -53 26 -15 193 -43 206 -35 15 9 5 36 -78 200 l-85 168
158 6 c140 6 174 11 307 46 177 47 280 89 351 144 28 21 59 39 69 39 9 0 73
54 140 120 67 66 127 120 132 120 10 0 19 -22 79 -195 62 -181 238 -504 341
-628 l23 -29 0 41 c0 22 -4 42 -9 45 -12 8 -143 232 -214 366 -31 58 -74 157
-97 220 -23 63 -50 139 -61 167 -10 29 -19 66 -19 83 0 60 -41 52 -131 -26
-31 -27 -80 -69 -109 -93 -31 -26 -59 -61 -70 -86 -17 -39 -24 -45 -92 -70
-40 -15 -125 -52 -189 -81 -196 -90 -352 -134 -473 -134 -54 0 -76 6 -144 40
-56 28 -91 54 -116 85 -42 50 -41 51 29 30 82 -25 219 -30 294 -10 65 17 175
67 185 84 13 21 -15 20 -82 -3 -97 -33 -207 -49 -257 -37 -39 9 -38 9 24 10
78 1 217 47 400 130 69 32 153 68 185 81 132 52 336 204 409 303 84 115 91
129 91 177 l1 45 90 1 c105 0 355 33 355 45 0 5 -19 9 -43 9 -24 0 -47 4 -53
9 -5 4 -63 14 -129 21 -147 15 -176 26 -211 82 -15 24 -49 64 -76 90 -27 27
-48 57 -48 68 0 38 -29 90 -58 107 l-30 17 -4 131 c-3 71 -1 134 4 140 4 5 8
35 8 67 0 55 -8 86 -86 342 -32 104 -31 164 1 212 29 42 33 112 14 218 -10 56
-8 75 25 231 46 223 57 257 87 272 13 7 65 31 114 54 50 24 103 52 119 63 29
21 96 115 96 134 0 5 32 41 70 78 101 97 133 157 138 259 9 185 -104 461 -281
680 -89 110 -152 159 -237 185 -118 35 -360 42 -547 15 l-52 -8 -68 65 c-88
84 -122 102 -198 102 -47 0 -76 -7 -135 -34 -65 -30 -87 -35 -170 -38 l-95 -3
-80 70 c-57 50 -104 80 -165 107 -77 34 -95 38 -185 41 -74 2 -115 -2 -160
-15z m203 -52 c78 -13 260 -101 382 -184 46 -32 86 -53 88 -47 2 6 17 11 34
11 16 0 41 9 55 20 38 29 176 70 236 69 101 -1 175 -59 222 -175 13 -32 28
-60 34 -62 6 -2 19 11 31 30 17 29 27 34 87 45 222 39 370 38 466 -5 102 -46
272 -242 352 -407 76 -155 107 -253 113 -356 4 -83 3 -89 -29 -149 -52 -97
-181 -199 -255 -200 -41 0 -79 -40 -70 -74 5 -21 -1 -29 -41 -55 -40 -27 -48
-29 -56 -16 -5 10 -16 13 -33 9 -16 -4 -24 -2 -24 7 0 7 -7 20 -16 30 -15 16
-14 19 3 33 10 8 28 23 40 33 27 22 42 83 20 83 -7 0 -22 -9 -31 -19 -17 -19
-85 -41 -127 -41 -19 0 -20 2 -8 17 9 11 -2 7 -31 -10 -57 -33 -63 -54 -18
-59 l33 -3 -4 -58 c-4 -66 11 -92 59 -102 25 -6 27 -9 21 -33 -4 -15 -8 -56
-9 -92 -3 -102 -28 -236 -52 -275 -20 -33 -50 -48 -50 -25 0 10 -35 9 -45 -1
-3 -3 12 -32 33 -65 46 -73 64 -113 56 -125 -3 -6 1 -21 10 -34 9 -13 16 -29
16 -35 0 -12 -37 -14 -44 -1 -3 5 -25 18 -48 30 -24 12 -58 33 -77 46 -19 14
-44 25 -56 25 -12 0 -66 22 -121 50 -118 58 -436 166 -456 154 -4 -3 -53 2
-109 12 -83 14 -113 15 -172 5 -40 -6 -102 -14 -139 -17 -69 -7 -107 -27 -73
-40 9 -4 67 -4 128 -1 130 7 191 -6 87 -18 -36 -4 -74 -9 -85 -11 -11 -2 -54
-6 -95 -9 -96 -6 -265 -47 -333 -81 -81 -42 -219 -137 -286 -199 l-61 -57 -11
25 c-9 21 -5 42 31 138 41 113 42 116 52 314 10 174 9 209 -5 269 -10 45 -13
76 -7 87 8 13 -1 23 -43 51 -29 19 -77 46 -107 60 -30 14 -77 45 -104 69 -79
70 -216 229 -222 258 -3 14 -20 62 -39 106 -23 57 -35 104 -40 161 -9 105 9
148 97 239 50 51 70 65 93 65 17 0 68 9 113 19 l84 18 8 -21 c7 -16 9 -9 10
29 1 69 25 167 59 239 16 34 32 74 36 90 9 40 109 137 176 169 45 23 151 53
194 56 6 1 38 -4 73 -9z m-558 -480 c0 -5 -5 -10 -11 -10 -5 0 -7 5 -4 10 3 6
8 10 11 10 2 0 4 -4 4 -10z m-395 -476 c9 -31 13 -64 9 -73 -8 -18 -22 23 -31
92 -7 54 3 45 22 -19z m19 -232 c60 -103 109 -163 178 -219 35 -28 72 -60 82
-72 l19 -21 -51 0 c-46 0 -57 4 -104 45 -29 24 -70 59 -91 76 -21 18 -47 50
-58 71 -34 67 -48 189 -21 188 4 0 25 -31 46 -68z m1703 -982 c74 -38 156 -85
182 -104 42 -31 50 -44 76 -118 15 -46 32 -87 36 -93 5 -5 9 -21 9 -36 0 -16
12 -40 31 -60 16 -18 33 -45 36 -61 6 -29 33 -40 33 -12 0 9 15 31 34 50 38
38 73 43 136 20 75 -27 97 -107 64 -238 -20 -79 -28 -94 -71 -139 -37 -39 -38
-57 -5 -107 18 -28 92 -73 135 -81 32 -7 32 -8 40 -81 14 -127 -16 -270 -86
-405 -14 -28 -33 -59 -41 -70 -16 -19 -16 -19 -10 10 5 27 4 26 -19 -12 -73
-123 -247 -297 -437 -438 -93 -69 -308 -171 -400 -189 -100 -20 -227 -8 -408
39 -172 44 -229 72 -306 149 -55 55 -59 57 -38 23 12 -21 22 -40 22 -42 0 -11
-109 60 -144 93 -61 58 -186 220 -209 271 -18 38 -22 64 -21 156 0 109 1 111
51 235 29 69 64 157 78 195 28 76 75 268 75 309 0 42 45 30 51 -14 2 -13 15
-31 30 -39 52 -29 109 12 113 81 l1 32 -89 3 c-49 1 -93 6 -96 10 -21 22 -30
80 -19 114 19 53 87 128 161 176 l67 43 -17 30 c-9 16 -24 30 -33 30 -27 0
-106 -67 -147 -125 -44 -62 -52 -58 -52 25 0 48 2 51 81 128 58 57 112 97 189
141 159 92 231 116 405 140 193 26 205 27 299 29 l79 2 134 -70z m374 -269
c-18 -33 -31 -25 -31 21 l0 42 21 -21 c17 -17 19 -24 10 -42z m51 -33 c-15
-15 -24 -6 -16 16 5 12 10 14 17 7 8 -8 8 -14 -1 -23z m43 -28 c18 -20 18 -20
-8 -18 -18 2 -27 8 -27 20 0 24 13 23 35 -2z m-2425 -988 c13 -11 23 -33 27
-59 5 -40 3 -46 -33 -81 -22 -22 -46 -42 -54 -45 -8 -4 -11 -9 -5 -12 40 -21
40 -22 17 -68 -15 -29 -22 -62 -22 -99 0 -30 -5 -69 -11 -86 -8 -23 -8 -41 1
-66 12 -39 46 -86 61 -86 16 0 39 66 39 111 0 56 31 103 84 128 75 37 118 24
217 -64 95 -85 110 -124 64 -170 -44 -45 -132 -22 -171 44 -12 21 -22 27 -40
23 -15 -3 -31 4 -48 21 l-25 25 6 -49 c5 -46 4 -49 -21 -59 l-27 -10 29 -42
c17 -24 40 -74 52 -111 17 -53 34 -81 72 -120 48 -50 107 -133 121 -170 10
-27 27 -11 27 26 0 35 -16 64 -63 114 -17 18 -29 34 -26 36 6 5 123 38 134 38
6 0 23 -3 38 -7 l29 -7 -15 30 c-9 16 -19 52 -23 80 -5 40 -3 53 11 67 10 9
24 15 32 12 8 -3 21 -6 28 -6 8 0 25 -19 39 -42 19 -34 28 -68 37 -156 15
-142 3 -180 -81 -262 -52 -52 -110 -154 -110 -196 0 -8 -18 -49 -39 -92 -49
-98 -169 -235 -246 -281 -150 -91 -368 -139 -424 -94 -22 18 -22 21 -10 63 7
25 13 46 14 48 1 1 24 -7 50 -18 26 -11 50 -18 52 -16 9 9 -10 28 -95 92 -48
36 -99 84 -115 106 -30 45 -57 125 -57 169 0 15 -10 58 -21 95 -12 38 -22 93
-22 122 -1 39 -5 53 -18 57 -27 9 -136 144 -172 214 -19 36 -44 96 -56 133
-11 37 -28 79 -37 93 -18 28 -54 155 -54 192 0 39 27 80 61 92 28 10 34 8 61
-20 30 -30 31 -31 24 -108 -7 -85 2 -105 42 -95 32 9 71 -25 122 -105 28 -45
54 -74 68 -77 34 -9 36 -1 12 46 -12 24 -25 77 -31 127 -5 47 -14 94 -20 105
-7 13 -9 48 -5 92 8 87 8 99 0 157 -10 81 47 170 123 193 34 11 53 -26 53
-105 0 -55 -5 -77 -30 -124 -16 -31 -27 -61 -24 -67 3 -5 19 -6 35 -3 24 5 29
3 34 -17 3 -13 5 -49 3 -79 -2 -39 1 -58 13 -70 9 -9 19 -35 23 -58 7 -47 44
-91 76 -91 27 0 25 22 -4 48 -33 28 -40 73 -33 200 5 89 10 110 31 141 13 20
27 56 31 81 10 59 28 93 71 132 66 60 90 68 124 40z m2775 -155 c4 5 6 1 3 -7
-39 -110 -51 -161 -41 -171 8 -8 2 -25 -25 -62 -57 -79 -246 -271 -309 -313
-79 -52 -87 -61 -28 -30 50 26 75 32 75 19 0 -17 -284 -183 -312 -183 -7 0
-26 -7 -41 -15 -98 -51 -280 -78 -351 -53 -65 24 -54 35 41 41 89 5 206 38
288 80 65 34 20 31 -120 -8 -78 -22 -162 -38 -210 -41 l-80 -5 120 36 c66 19
155 53 199 76 43 22 80 38 83 35 7 -6 76 40 162 108 226 181 353 329 455 533
11 22 11 22 47 -13 19 -19 39 -31 44 -27z m12 31 c-3 -7 -5 -2 -5 12 0 14 2
19 5 13 2 -7 2 -19 0 -25z m60 -50 c-3 -7 -5 -2 -5 12 0 14 2 19 5 13 2 -7 2
-19 0 -25z m13 -86 c15 -9 20 -9 20 0 0 6 3 9 6 6 3 -3 -9 -48 -26 -100 -26
-77 -43 -109 -101 -183 -86 -110 -146 -167 -221 -205 -64 -33 -76 -37 -59 -17
6 8 9 16 6 19 -3 3 18 24 47 46 85 66 161 149 242 266 73 104 89 140 46 101
-20 -18 -20 -18 -5 18 8 20 16 49 16 64 1 15 3 21 5 13 3 -9 13 -21 24 -28z
m-2641 -386 c15 -18 100 -37 128 -30 19 5 21 1 25 -48 5 -63 -4 -74 -68 -84
-53 -8 -88 11 -109 59 -7 18 -20 48 -29 69 -9 20 -16 39 -16 42 0 12 58 5 69
-8z m971 -195 c0 -36 -101 -116 -226 -177 -85 -42 -113 -60 -96 -62 12 -2 46
8 74 21 40 19 57 23 71 15 19 -10 25 -7 135 73 24 17 46 28 49 25 12 -11 -50
-77 -123 -131 -53 -39 -93 -60 -137 -72 -73 -19 -231 -23 -247 -7 -14 14 10
77 43 113 34 36 118 87 167 102 25 7 55 21 67 32 11 10 36 22 55 27 18 5 60
20 93 34 72 31 75 31 75 7z m126 -26 c4 -10 10 -12 18 -6 7 6 30 3 65 -9 51
-17 57 -23 90 -82 44 -79 100 -157 156 -217 23 -25 67 -84 97 -131 31 -47 78
-111 106 -143 27 -32 56 -76 65 -98 l16 -41 -42 7 c-60 10 -164 52 -223 92
-78 51 -200 197 -255 303 -25 50 -30 125 -15 220 8 49 7 53 -7 41 -9 -7 -19
-28 -23 -47 -7 -38 -42 -70 -58 -54 -7 7 -6 24 1 52 6 24 9 45 6 48 -11 11
-33 -36 -33 -72 0 -33 -3 -38 -24 -38 -54 0 -45 111 13 169 25 25 39 27 47 6z
m250 -83 c-4 -3 -14 2 -24 12 -16 18 -16 18 6 6 13 -6 21 -14 18 -18z m211
-58 c-3 -3 -12 -4 -19 -1 -8 3 -5 6 6 6 11 1 17 -2 13 -5z m-1288 -321 c-34
-43 -63 -80 -66 -83 -9 -9 48 115 63 138 8 13 25 22 39 22 24 0 22 -5 -36 -77z"/>
<path d="M2394 5222 c-26 -21 -88 -115 -109 -166 -23 -55 -30 -164 -16 -238
12 -61 103 -256 142 -307 11 -13 38 -38 61 -55 90 -66 -12 -33 -154 50 -94 55
-159 112 -214 187 -49 66 -105 203 -107 262 -2 36 -5 40 -27 40 -24 0 -25 -3
-22 -50 6 -117 74 -265 170 -367 131 -139 377 -258 450 -219 25 13 29 46 7 54
-25 10 -83 109 -109 188 -32 97 -66 302 -66 399 1 59 7 89 28 139 15 35 32 66
38 68 7 2 14 -17 18 -49 3 -29 29 -147 57 -263 60 -244 169 -545 198 -545 26
0 69 96 81 181 17 120 134 420 192 493 25 31 64 55 113 70 25 7 55 -36 55 -79
0 -14 5 -35 10 -45 8 -14 5 -47 -10 -120 -26 -127 -58 -216 -131 -362 l-59
-118 37 -16 c49 -20 154 -20 213 1 35 12 49 13 66 4 18 -9 32 -7 79 15 67 30
89 33 58 7 -13 -11 -23 -22 -23 -25 0 -10 39 -6 45 5 4 6 14 8 22 5 21 -8 162
85 216 142 41 45 65 87 55 98 -3 2 -45 -28 -94 -66 -68 -54 -94 -69 -111 -65
-13 3 -32 0 -43 -7 -14 -9 -23 -9 -30 -2 -7 7 21 31 94 77 94 61 126 91 112
105 -3 3 -39 -12 -80 -32 -79 -38 -91 -42 -81 -26 3 6 -1 13 -9 16 -11 4 -37
-14 -78 -51 -62 -58 -126 -93 -209 -115 -24 -7 -47 -16 -50 -22 -9 -14 -81
-21 -98 -9 -12 7 -11 13 7 35 12 16 25 55 32 99 15 95 25 127 71 222 33 68 40
94 45 171 6 78 4 96 -14 137 -22 50 -69 87 -112 87 -36 0 -81 -31 -126 -86
-21 -27 -62 -76 -90 -110 -83 -99 -154 -266 -154 -361 0 -18 -3 -33 -7 -33
-23 1 -36 26 -58 111 -36 141 -169 512 -195 543 -15 19 -62 17 -86 -2z"/>
<path d="M2920 4578 c-11 -18 -25 -57 -31 -88 -7 -30 -21 -70 -32 -88 -20 -35
-17 -62 8 -62 18 0 62 65 70 105 3 17 13 53 22 81 25 80 1 114 -37 52z"/>
<path d="M1906 4492 c-11 -18 5 -41 52 -75 109 -77 156 -100 207 -103 27 -1
52 2 55 7 4 5 20 3 39 -4 29 -11 34 -10 46 7 13 18 16 18 39 3 16 -11 27 -13
31 -6 18 29 -103 95 -152 83 -16 -4 -33 -11 -39 -15 -7 -6 -27 0 -52 14 -39
21 -42 21 -54 5 -12 -16 -18 -14 -78 24 -36 23 -70 48 -76 56 -7 10 -13 11
-18 4z"/>
<path d="M1679 4373 c11 -22 55 -62 98 -92 l32 -22 27 41 27 40 38 -35 c44
-39 78 -45 86 -15 6 24 19 26 27 5 5 -15 56 -22 56 -7 0 4 -17 25 -38 45 -38
37 -72 48 -72 25 0 -7 -4 -19 -9 -27 -8 -12 -15 -9 -41 12 -34 29 -64 35 -77
15 -4 -7 -18 -21 -30 -31 -21 -19 -22 -18 -66 22 -47 43 -75 55 -58 24z"/>
<path d="M3243 4194 c-3 -9 7 -28 28 -50 18 -19 30 -34 26 -34 -4 0 -3 -9 3
-19 8 -16 6 -22 -6 -29 -11 -6 -15 -16 -10 -27 6 -16 15 -17 82 -12 41 4 84
12 94 17 35 19 23 37 -29 43 -43 5 -55 12 -106 66 -61 65 -72 70 -82 45z"/>
<path d="M3510 4061 c0 -14 29 -22 56 -15 38 10 28 24 -16 24 -22 0 -40 -4
-40 -9z"/>
<path d="M3365 3865 c22 -8 52 -29 67 -47 23 -27 28 -29 34 -14 5 13 14 15 34
11 30 -7 43 4 34 28 -6 15 -37 22 -144 32 l-65 5 40 -15z"/>
<path d="M2343 3578 c-20 -5 -33 -15 -33 -24 0 -12 5 -14 18 -8 9 5 38 8 65 7
26 -1 47 3 47 8 0 5 -1 9 -3 9 -1 0 -16 4 -32 8 -17 5 -45 5 -62 0z"/>
<path d="M2324 3496 c-3 -8 -4 -29 -2 -47 3 -37 1 -35 146 -80 48 -14 102 -22
155 -23 81 -1 82 -1 82 24 0 19 -7 27 -30 33 -16 5 -64 22 -105 39 -88 34
-197 68 -223 68 -10 0 -20 -6 -23 -14z"/>
<path d="M2508 3153 c7 -3 16 -2 19 1 4 3 -2 6 -13 5 -11 0 -14 -3 -6 -6z"/>
<path d="M2444 3132 c-12 -9 -34 -39 -48 -67 -14 -27 -32 -58 -39 -68 -10 -15
-9 -21 7 -33 29 -21 60 -17 87 12 13 14 46 45 73 68 47 39 53 41 115 41 51 0
66 3 66 14 0 9 -20 20 -54 28 -66 17 -93 8 -163 -54 -51 -45 -87 -68 -95 -59
-10 10 48 102 75 119 15 9 21 16 12 17 -8 0 -25 -8 -36 -18z"/>
<path d="M3433 3121 c-30 -25 -113 -123 -113 -133 0 -4 7 -8 15 -8 8 0 15 -8
15 -17 0 -26 39 -85 51 -78 5 4 9 14 8 23 -6 60 1 79 36 97 19 11 37 16 41 12
4 -4 -3 -29 -16 -55 -35 -67 -35 -71 -1 -34 54 57 36 149 -21 113 -11 -7 -22
-10 -25 -8 -6 6 24 64 37 72 12 7 14 35 3 35 -5 -1 -18 -9 -30 -19z"/>
<path d="M2071 3111 c-6 -11 -11 -72 -11 -136 0 -127 -6 -147 -65 -220 -47
-58 -65 -99 -65 -145 0 -44 13 -77 39 -98 42 -33 141 -75 141 -59 0 2 -27 31
-60 64 -84 83 -83 111 5 219 56 68 72 134 56 226 -6 36 -11 85 -11 111 0 51
-13 68 -29 38z"/>
<path d="M2711 2965 c-24 -19 -50 -35 -57 -35 -8 0 -14 -9 -14 -20 0 -11 2
-20 5 -20 9 0 79 48 115 79 29 26 32 30 15 31 -11 0 -40 -16 -64 -35z"/>
<path d="M2424 2676 c-21 -54 86 -126 187 -126 71 0 76 -7 89 -122 5 -44 12
-83 15 -87 13 -13 25 28 25 90 0 55 -5 76 -31 125 -39 74 -35 70 -59 49 -15
-14 -29 -16 -65 -12 -46 7 -125 41 -125 55 0 5 -6 17 -14 28 -14 19 -15 19
-22 0z"/>
<path d="M2147 2573 c-13 -12 -7 -23 24 -39 37 -19 64 -4 39 20 -19 17 -54 28
-63 19z"/>
<path d="M2423 2474 c-7 -7 -13 -17 -13 -22 0 -5 -22 -30 -49 -55 -74 -70
-139 -75 -205 -17 -41 36 -52 37 -60 6 -3 -14 -18 -39 -33 -56 -24 -29 -31
-32 -70 -27 -55 6 -126 53 -120 79 3 10 0 18 -8 18 -27 0 -33 -74 -9 -122 44
-91 188 -104 271 -26 19 18 26 19 54 9 59 -21 134 -14 204 19 35 17 69 39 75
49 13 25 13 128 0 136 -5 3 -11 -2 -11 -12 -1 -11 -4 -8 -8 8 -5 22 -8 25 -18
13z m-544 -179 c6 -3 11 -11 11 -17 0 -6 -9 -3 -20 7 -11 10 -20 28 -19 39 0
21 0 21 9 0 5 -12 13 -25 19 -29z"/>
<path d="M2252 2180 c-34 -32 -77 -39 -114 -19 -17 9 -19 8 -16 -7 5 -30 49
-48 93 -40 58 11 118 81 79 93 -5 1 -24 -11 -42 -27z"/>
<path d="M2389 1972 c-54 -27 -82 -35 -145 -39 -72 -4 -84 -2 -128 22 -30 16
-53 22 -58 17 -12 -12 49 -60 93 -72 51 -15 140 -12 192 6 48 16 138 87 121
95 -5 2 -39 -11 -75 -29z"/>
<path d="M661 1590 c-59 -27 -127 -84 -147 -122 -8 -16 -14 -31 -12 -33 2 -2
30 17 63 42 92 70 123 80 263 86 68 3 127 8 130 12 14 14 -27 25 -94 25 -39 0
-91 2 -115 5 -32 4 -56 0 -88 -15z"/>
<path d="M750 1192 c0 -5 13 -18 29 -29 37 -28 70 -87 111 -195 21 -55 39 -88
48 -88 18 0 11 53 -19 144 -26 77 -61 131 -102 156 -33 20 -67 26 -67 12z"/>
<path d="M3399 1813 c-14 -16 -32 -37 -40 -47 -14 -19 -13 -19 12 -3 28 18 75
77 61 77 -4 0 -19 -12 -33 -27z"/>
<path d="M2390 1384 c0 -55 97 -305 137 -354 18 -21 23 -22 36 -11 14 11 22 5
57 -49 32 -51 74 -90 96 -90 17 0 -5 48 -51 115 -108 157 -228 341 -247 378
-24 44 -28 46 -28 11z"/>
<path d="M3807 1242 c-43 -29 -56 -53 -57 -104 0 -57 18 -71 88 -66 l47 3 9
48 c7 35 6 58 -4 85 -20 56 -37 63 -83 34z m43 -54 c-17 -6 -21 -14 -17 -33 5
-27 -23 -52 -44 -39 -14 8 -5 56 17 89 15 23 17 24 41 8 l25 -17 -22 -8z"/>
<path d="M3951 881 c-24 -24 -44 -94 -36 -121 5 -17 16 -20 69 -20 75 0 87 10
92 75 3 35 0 49 -16 65 -26 26 -83 27 -109 1z m77 -43 c3 -18 -54 -61 -69 -53
-16 10 -16 56 0 65 24 15 65 7 69 -12z"/>
<path d="M4125 566 c-47 -21 -66 -48 -66 -97 -2 -72 0 -78 25 -94 54 -35 166
29 166 95 0 42 -23 84 -55 98 -32 15 -33 15 -70 -2z m55 -49 c0 -7 -7 -23 -16
-35 -20 -29 -74 -31 -74 -3 0 26 22 41 48 34 13 -3 22 -1 22 6 0 6 5 11 10 11
6 0 10 -6 10 -13z"/>
</g>
</svg>
